<svg width="20" height="20" viewBox="0 0 20 20" fill="none" xmlns="http://www.w3.org/2000/svg">
<path d="M4.2869 13.798C4.07348 13.798 3.89459 13.7258 3.75023 13.5814C3.60587 13.4371 3.53369 13.2582 3.53369 13.0448V11.5384H2.83658C2.62318 11.5384 2.4443 11.4662 2.29994 11.3219C2.15556 11.1775 2.08337 10.9986 2.08337 10.7852V9.2147C2.08337 9.00129 2.15556 8.8224 2.29994 8.67803C2.4443 8.53367 2.62318 8.46149 2.83658 8.46149H3.53369V6.95345C3.53369 6.73981 3.60587 6.56114 3.75023 6.41745C3.89459 6.27375 4.07348 6.2019 4.2869 6.2019H17.1635C17.3769 6.2019 17.5557 6.27409 17.7001 6.41845C17.8445 6.56281 17.9167 6.74169 17.9167 6.95509V13.0435C17.9167 13.2591 17.8445 13.4388 17.7001 13.5824C17.5557 13.7261 17.3769 13.798 17.1635 13.798H4.2869ZM4.77565 12.548H8.32533V7.45186H4.77565V12.548Z" fill="white"/>
</svg>
