<svg width="20" height="20" viewBox="0 0 20 20" fill="none" xmlns="http://www.w3.org/2000/svg">
<path d="M4.16663 14.1666C3.93051 14.1666 3.7326 14.0867 3.57288 13.927C3.41315 13.7673 3.33329 13.5694 3.33329 13.3333V11.6666H2.49996C2.26385 11.6666 2.06593 11.5867 1.90621 11.427C1.74649 11.2673 1.66663 11.0694 1.66663 10.8333V9.16658C1.66663 8.93047 1.74649 8.73256 1.90621 8.57284C2.06593 8.41311 2.26385 8.33325 2.49996 8.33325H3.33329V6.66659C3.33329 6.43047 3.41315 6.23256 3.57288 6.07284C3.7326 5.91311 3.93051 5.83325 4.16663 5.83325H17.5C17.7361 5.83325 17.934 5.91311 18.0937 6.07284C18.2534 6.23256 18.3333 6.43047 18.3333 6.66659V13.3333C18.3333 13.5694 18.2534 13.7673 18.0937 13.927C17.934 14.0867 17.7361 14.1666 17.5 14.1666H4.16663ZM4.99996 12.4999H10.8333V7.49992H4.99996V12.4999Z" fill="white"/>
</svg>
