<svg width="20" height="20" viewBox="0 0 20 20" fill="none" xmlns="http://www.w3.org/2000/svg">
<path d="M10 18.0001C9.71667 18.0001 9.47917 17.9043 9.2875 17.7126C9.09583 17.5209 9 17.2834 9 17.0001V13.0001C9 12.7168 9.09583 12.4793 9.2875 12.2876C9.47917 12.0959 9.71667 12.0001 10 12.0001H12.5C12.7833 12.0001 13.0208 12.0959 13.2125 12.2876C13.4042 12.4793 13.5 12.7168 13.5 13.0001V17.0001C13.5 17.2834 13.4042 17.5209 13.2125 17.7126C13.0208 17.9043 12.7833 18.0001 12.5 18.0001H10ZM10.5 16.5001H12V13.5001H10.5V16.5001ZM16 20.0001C15.7167 20.0001 15.4792 19.9043 15.2875 19.7126C15.0958 19.5209 15 19.2834 15 19.0001V17.2501C15 16.9668 15.0958 16.7293 15.2875 16.5376C15.4792 16.3459 15.7167 16.2501 16 16.2501H18V15.5001H15.75C15.5333 15.5001 15.3542 15.4293 15.2125 15.2876C15.0708 15.1459 15 14.9668 15 14.7501C15 14.5334 15.0708 14.3543 15.2125 14.2126C15.3542 14.0709 15.5333 14.0001 15.75 14.0001H18.5C18.7833 14.0001 19.0208 14.0959 19.2125 14.2876C19.4042 14.4793 19.5 14.7168 19.5 15.0001V16.7501C19.5 17.0334 19.4042 17.2709 19.2125 17.4626C19.0208 17.6543 18.7833 17.7501 18.5 17.7501H16.5V18.5001H18.75C18.9667 18.5001 19.1458 18.5709 19.2875 18.7126C19.4292 18.8543 19.5 19.0334 19.5 19.2501C19.5 19.4668 19.4292 19.6459 19.2875 19.7876C19.1458 19.9293 18.9667 20.0001 18.75 20.0001H16ZM7 19.9501C4.95 19.7168 3.27083 18.8376 1.9625 17.3126C0.654167 15.7876 0 13.9501 0 11.8001C0 10.7168 0.241667 9.64593 0.725 8.5876C1.20833 7.52926 1.81667 6.52093 2.55 5.5626C3.28333 4.60426 4.07917 3.7001 4.9375 2.8501C5.79583 2.0001 6.59167 1.2501 7.325 0.600098C7.425 0.516764 7.52917 0.454264 7.6375 0.412598C7.74583 0.370931 7.86667 0.350098 8 0.350098C8.13333 0.350098 8.25417 0.370931 8.3625 0.412598C8.47083 0.454264 8.575 0.516764 8.675 0.600098C9.35833 1.2001 10.0667 1.85843 10.8 2.5751C11.5333 3.29176 12.225 4.04593 12.875 4.8376C13.525 5.62926 14.1042 6.45843 14.6125 7.3251C15.1208 8.19176 15.5 9.08343 15.75 10.0001H9C8.45 10.0001 7.97917 10.1959 7.5875 10.5876C7.19583 10.9793 7 11.4501 7 12.0001V19.9501Z" fill="url(#paint0_linear_13_30)"/>
<defs>
<linearGradient id="paint0_linear_13_30" x1="9.75" y1="0.350098" x2="9.75" y2="20.0001" gradientUnits="userSpaceOnUse">
<stop stop-color="#748AFF"/>
<stop offset="1" stop-color="#74BCFF"/>
</linearGradient>
</defs>
</svg>
