<svg width="20" height="18" viewBox="0 0 20 18" fill="none" xmlns="http://www.w3.org/2000/svg">
<path d="M16.9904 11.6327C17.0776 11.5455 17.1228 11.4433 17.126 11.326C17.1292 11.2086 17.084 11.1032 16.9904 11.0096C16.9032 10.9224 16.7994 10.8788 16.6789 10.8788C16.5583 10.8788 16.4545 10.9224 16.3673 11.0096L14.8885 12.4731C14.8013 12.5602 14.7561 12.665 14.7529 12.7875C14.7497 12.9099 14.7949 13.0179 14.8885 13.1115C14.9756 13.1987 15.0821 13.2423 15.2077 13.2423C15.3333 13.2423 15.4397 13.1987 15.5269 13.1115L16.9904 11.6327ZM15 17.5C13.7513 17.5 12.6891 17.0621 11.8135 16.1865C10.9378 15.3109 10.5 14.2487 10.5 13C10.5 11.7513 10.9378 10.6891 11.8135 9.81345C12.6891 8.93782 13.7513 8.5 15 8.5C16.2487 8.5 17.3109 8.93782 18.1865 9.81345C19.0622 10.6891 19.5 11.7513 19.5 13C19.5 14.2487 19.0622 15.3109 18.1865 16.1865C17.3109 17.0621 16.2487 17.5 15 17.5ZM0.500031 7.25V2.3077C0.500031 1.80257 0.675031 1.375 1.02503 1.025C1.37503 0.675 1.8026 0.5 2.30773 0.5H17.6923C18.1974 0.5 18.625 0.675 18.975 1.025C19.325 1.375 19.5 1.80257 19.5 2.3077V8.07113C18.8846 7.49678 18.191 7.05928 17.4192 6.75865C16.6474 6.45802 15.841 6.3077 15 6.3077C14.3474 6.3077 13.7272 6.39488 13.1394 6.56923C12.5516 6.74359 11.9993 6.99168 11.4827 7.31348L9.66923 3.66538C9.60511 3.54358 9.51216 3.45223 9.39038 3.39133C9.26858 3.33044 9.13846 3.3 9.00001 3.3C8.86156 3.3 8.72983 3.33044 8.60483 3.39133C8.47983 3.45223 8.38528 3.54358 8.32118 3.66538L5.00001 10.3327L3.65383 7.66538C3.58973 7.53718 3.49935 7.43589 3.38268 7.36153C3.26601 7.28718 3.13846 7.25 3.00001 7.25H0.500031ZM2.30773 15.5C1.8026 15.5 1.37503 15.325 1.02503 14.975C0.675031 14.625 0.500031 14.1974 0.500031 13.6923V8.74995H2.52886L4.32118 12.3442C4.38528 12.4827 4.47566 12.5849 4.59233 12.6509C4.709 12.7169 4.84489 12.75 5.00001 12.75C5.13846 12.75 5.26601 12.7169 5.38268 12.6509C5.49935 12.5849 5.58973 12.4827 5.65383 12.3442L8.99038 5.69225L10.277 8.26538C9.67054 8.87306 9.19073 9.58139 8.83753 10.3904C8.48433 11.1993 8.30773 12.0692 8.30773 13C8.30773 13.4269 8.34747 13.8512 8.42696 14.273C8.50644 14.6948 8.634 15.1038 8.80963 15.5H2.30773Z" fill="url(#paint0_linear_13_65)"/>
<defs>
<linearGradient id="paint0_linear_13_65" x1="10" y1="0.5" x2="10" y2="17.5" gradientUnits="userSpaceOnUse">
<stop stop-color="#FFA674"/>
<stop offset="1" stop-color="#FF8D74"/>
</linearGradient>
</defs>
</svg>
