<svg width="16" height="20" viewBox="0 0 16 20" fill="none" xmlns="http://www.w3.org/2000/svg">
<path d="M4.99997 16.3653H11C11.2128 16.3653 11.391 16.2935 11.5346 16.1499C11.6782 16.0063 11.75 15.8281 11.75 15.6153C11.75 15.4025 11.6782 15.2243 11.5346 15.0807C11.391 14.9371 11.2128 14.8654 11 14.8654H4.99997C4.78716 14.8654 4.60896 14.9371 4.46537 15.0807C4.32179 15.2243 4.25 15.4025 4.25 15.6153C4.25 15.8281 4.32179 16.0063 4.46537 16.1499C4.60896 16.2935 4.78716 16.3653 4.99997 16.3653ZM4.99997 13.5576H11C11.2128 13.5576 11.391 13.4858 11.5346 13.3423C11.6782 13.1987 11.75 13.0205 11.75 12.8077C11.75 12.5948 11.6782 12.4166 11.5346 12.2731C11.391 12.1295 11.2128 12.0577 11 12.0577H4.99997C4.78716 12.0577 4.60896 12.1295 4.46537 12.2731C4.32179 12.4166 4.25 12.5948 4.25 12.8077C4.25 13.0205 4.32179 13.1987 4.46537 13.3423C4.60896 13.4858 4.78716 13.5576 4.99997 13.5576ZM7.99997 4.5885C7.76792 4.30003 7.51023 4.06894 7.2269 3.89523C6.94357 3.72149 6.60126 3.63463 6.19998 3.63463C5.66407 3.63463 5.20511 3.82565 4.82308 4.2077C4.44103 4.58975 4.25 5.04873 4.25 5.58463C4.25 6.43591 4.63269 7.21571 5.39808 7.92403C6.16344 8.63236 6.82818 9.24358 7.3923 9.75768C7.5564 9.92178 7.75896 10.0038 7.99997 10.0038C8.24099 10.0038 8.44355 9.92178 8.60765 9.75768C9.17177 9.24998 9.83651 8.64036 10.6019 7.92883C11.3673 7.21731 11.75 6.43591 11.75 5.58463C11.75 5.04873 11.5589 4.58975 11.1769 4.2077C10.7948 3.82565 10.3359 3.63463 9.79998 3.63463C9.39869 3.63463 9.05638 3.72149 8.77305 3.89523C8.48972 4.06894 8.23203 4.30003 7.99997 4.5885ZM13.6922 19.5H2.3077C1.80257 19.5 1.375 19.325 1.025 18.975C0.675 18.625 0.5 18.1974 0.5 17.6923V2.3077C0.5 1.80257 0.675 1.375 1.025 1.025C1.375 0.675 1.80257 0.5 2.3077 0.5H13.6922C14.1974 0.5 14.625 0.675 14.975 1.025C15.325 1.375 15.5 1.80257 15.5 2.3077V17.6923C15.5 18.1974 15.325 18.625 14.975 18.975C14.625 19.325 14.1974 19.5 13.6922 19.5Z" fill="url(#paint0_linear_88_187)"/>
<defs>
<linearGradient id="paint0_linear_88_187" x1="7.99998" y1="0.5" x2="7.99998" y2="19.5" gradientUnits="userSpaceOnUse">
<stop stop-color="#2FC8BF"/>
<stop offset="1" stop-color="#2FC87F"/>
</linearGradient>
</defs>
</svg>
