<svg width="10" height="20" viewBox="0 0 10 20" fill="none" xmlns="http://www.w3.org/2000/svg">
<path d="M5.00001 19.5C3.75131 19.5 2.68913 19.0621 1.81348 18.1865C0.937847 17.3109 0.500031 16.2487 0.500031 15C0.500031 14.2384 0.676639 13.5327 1.02986 12.8827C1.38306 12.2327 1.87311 11.6949 2.50003 11.2692V2.99998C2.50003 2.30128 2.74201 1.70993 3.22598 1.22595C3.70996 0.741984 4.30131 0.5 5.00001 0.5C5.69871 0.5 6.29005 0.741984 6.77403 1.22595C7.258 1.70993 7.49998 2.30128 7.49998 2.99998V11.2692C8.1269 11.6949 8.61696 12.2327 8.97016 12.8827C9.32337 13.5327 9.49998 14.2384 9.49998 15C9.49998 16.2487 9.06216 17.3109 8.18653 18.1865C7.31088 19.0621 6.24871 19.5 5.00001 19.5ZM4.00001 9.1923H6.00001V7.94228H5.00001V7.05768H6.00001V4.94228H5.00001V4.05768H6.00001V2.99998C6.00001 2.71664 5.90417 2.47914 5.71251 2.28748C5.52084 2.09581 5.28334 1.99998 5.00001 1.99998C4.71667 1.99998 4.47917 2.09581 4.28751 2.28748C4.09584 2.47914 4.00001 2.71664 4.00001 2.99998V9.1923Z" fill="url(#paint0_linear_13_63)"/>
<defs>
<linearGradient id="paint0_linear_13_63" x1="5.00001" y1="0.5" x2="5.00001" y2="19.5" gradientUnits="userSpaceOnUse">
<stop stop-color="#2FC8BF"/>
<stop offset="1" stop-color="#2FC87F"/>
</linearGradient>
</defs>
</svg>
