<svg width="24" height="24" viewBox="0 0 24 24" fill="none" xmlns="http://www.w3.org/2000/svg">
<path d="M4.50003 18.9999V10.1537C4.50003 9.86753 4.56406 9.59638 4.69211 9.34029C4.82016 9.08421 4.99716 8.87332 5.22311 8.70762L10.9154 4.41917C11.2313 4.17813 11.5923 4.05762 11.9985 4.05762C12.4046 4.05762 12.7667 4.17813 13.0846 4.41917L18.7769 8.70762C19.0029 8.87332 19.1799 9.08421 19.3079 9.34029C19.436 9.59638 19.5 9.86753 19.5 10.1537V18.9999C19.5 19.4089 19.3522 19.7611 19.0567 20.0566C18.7612 20.3521 18.409 20.4999 18 20.4999H14.8077C14.5516 20.4999 14.3369 20.4132 14.1637 20.24C13.9905 20.0668 13.9039 19.8521 13.9039 19.596V14.7114C13.9039 14.4553 13.8172 14.2407 13.644 14.0674C13.4707 13.8942 13.2561 13.8076 13 13.8076H11C10.7439 13.8076 10.5293 13.8942 10.356 14.0674C10.1828 14.2407 10.0962 14.4553 10.0962 14.7114V19.596C10.0962 19.8521 10.0095 20.0668 9.83631 20.24C9.66307 20.4132 9.44841 20.4999 9.19233 20.4999H6.00001C5.59104 20.4999 5.23881 20.3521 4.94331 20.0566C4.64779 19.7611 4.50003 19.4089 4.50003 18.9999Z" fill="white"/>
</svg>
