<svg width="8" height="18" viewBox="0 0 8 18" fill="none" xmlns="http://www.w3.org/2000/svg">
<path d="M3.25003 14.6174L3.24041 3.36343L1.92691 4.67693C1.79006 4.81538 1.61899 4.8846 1.41371 4.8846C1.20842 4.8846 1.03086 4.81024 0.88103 4.66153C0.743697 4.52521 0.675031 4.35171 0.675031 4.14103C0.675031 3.93036 0.744256 3.75579 0.882706 3.61733L3.36453 1.13553C3.45998 1.04008 3.56081 0.973119 3.66701 0.934653C3.77319 0.896186 3.88696 0.876953 4.00833 0.876953C4.1297 0.876953 4.24231 0.896186 4.34616 0.934653C4.45001 0.973119 4.54966 1.04008 4.64511 1.13553L7.1269 3.61733C7.26537 3.75579 7.33621 3.92566 7.33941 4.12693C7.34262 4.32821 7.27249 4.50641 7.129 4.66153C6.97249 4.81666 6.79359 4.89423 6.59231 4.89423C6.39104 4.89423 6.21284 4.81666 6.05771 4.66153L4.74998 3.36343V14.6174L6.07311 13.3135C6.20996 13.175 6.38102 13.1058 6.58631 13.1058C6.79159 13.1058 6.96915 13.1801 7.11898 13.3289C7.25631 13.4652 7.32498 13.6387 7.32498 13.8494C7.32498 14.06 7.25576 14.2346 7.11731 14.3731L4.63548 16.8549C4.54003 16.9503 4.43996 17.0173 4.33526 17.0557C4.23056 17.0942 4.11838 17.1134 3.99873 17.1134C3.87906 17.1134 3.76539 17.0941 3.65771 17.0553C3.55001 17.0166 3.45001 16.9507 3.35771 16.8577L0.873106 14.3731C0.736772 14.2362 0.665506 14.0651 0.659306 13.8599C0.653122 13.6546 0.724389 13.477 0.873106 13.3272C1.00942 13.1898 1.18292 13.1212 1.39361 13.1212C1.60427 13.1212 1.77884 13.1904 1.91731 13.3289L3.25003 14.6174Z" fill="url(#paint0_linear_88_153)"/>
<defs>
<linearGradient id="paint0_linear_88_153" x1="3.99922" y1="0.876953" x2="3.99922" y2="17.1134" gradientUnits="userSpaceOnUse">
<stop stop-color="#FF7674"/>
<stop offset="1" stop-color="#FF9574"/>
</linearGradient>
</defs>
</svg>
