<svg width="28" height="34" viewBox="0 0 28 34" fill="none" xmlns="http://www.w3.org/2000/svg">
<path d="M14.0037 16.5833C14.8068 16.5833 15.4931 16.2973 16.0625 15.7254C16.632 15.1535 16.9167 14.466 16.9167 13.6629C16.9167 12.8598 16.6307 12.1735 16.0588 11.6041C15.4869 11.0346 14.7994 10.7499 13.9963 10.7499C13.1932 10.7499 12.507 11.0359 11.9375 11.6078C11.3681 12.1797 11.0834 12.8672 11.0834 13.6703C11.0834 14.4734 11.3693 15.1596 11.9412 15.7291C12.5131 16.2985 13.2006 16.5833 14.0037 16.5833ZM14 33.6666C9.5278 29.861 6.18752 26.3263 3.97919 23.0624C1.77085 19.7985 0.666687 16.7777 0.666687 13.9999C0.666687 9.83325 2.00696 6.51381 4.68752 4.04158C7.36808 1.56936 10.4722 0.333252 14 0.333252C17.5278 0.333252 20.632 1.56936 23.3125 4.04158C25.9931 6.51381 27.3334 9.83325 27.3334 13.9999C27.3334 16.7777 26.2292 19.7985 24.0209 23.0624C21.8125 26.3263 18.4722 29.861 14 33.6666Z" fill="white"/>
</svg>
