<svg width="18" height="18" viewBox="0 0 18 18" fill="none" xmlns="http://www.w3.org/2000/svg">
<path d="M9.00225 8.80765C9.78278 8.80765 10.4455 8.53446 10.9904 7.98808C11.5352 7.44171 11.8077 6.77825 11.8077 5.9977C11.8077 5.21717 11.5345 4.55447 10.9881 4.0096C10.4417 3.46473 9.77825 3.1923 8.9977 3.1923C8.21717 3.1923 7.55447 3.46549 7.0096 4.01188C6.46473 4.55824 6.1923 5.2217 6.1923 6.00225C6.1923 6.78278 6.46549 7.44548 7.01188 7.99035C7.55824 8.53522 8.2217 8.80765 9.00225 8.80765ZM7.49998 6.49998C7.36664 6.49998 7.24998 6.44998 7.14998 6.34998C7.04998 6.24998 6.99998 6.13331 6.99998 5.99998C6.99998 5.86664 7.04998 5.74998 7.14998 5.64998C7.24998 5.54998 7.36664 5.49998 7.49998 5.49998C7.63331 5.49998 7.74998 5.54998 7.84998 5.64998C7.94998 5.74998 7.99998 5.86664 7.99998 5.99998C7.99998 6.13331 7.94998 6.24998 7.84998 6.34998C7.74998 6.44998 7.63331 6.49998 7.49998 6.49998ZM8.99998 6.49998C8.86664 6.49998 8.74998 6.44998 8.64998 6.34998C8.54998 6.24998 8.49998 6.13331 8.49998 5.99998C8.49998 5.86664 8.54998 5.74998 8.64998 5.64998C8.74998 5.54998 8.86664 5.49998 8.99998 5.49998C9.13331 5.49998 9.24998 5.54998 9.34998 5.64998C9.44998 5.74998 9.49998 5.86664 9.49998 5.99998C9.49998 6.13331 9.44998 6.24998 9.34998 6.34998C9.24998 6.44998 9.13331 6.49998 8.99998 6.49998ZM10.5 6.49998C10.3666 6.49998 10.25 6.44998 10.15 6.34998C10.05 6.24998 9.99998 6.13331 9.99998 5.99998C9.99998 5.86664 10.05 5.74998 10.15 5.64998C10.25 5.54998 10.3666 5.49998 10.5 5.49998C10.6333 5.49998 10.75 5.54998 10.85 5.64998C10.95 5.74998 11 5.86664 11 5.99998C11 6.13331 10.95 6.24998 10.85 6.34998C10.75 6.44998 10.6333 6.49998 10.5 6.49998ZM2.3077 17.5C1.80257 17.5 1.375 17.325 1.025 16.975C0.675 16.625 0.5 16.1974 0.5 15.6923V2.3077C0.5 1.80257 0.675 1.375 1.025 1.025C1.375 0.675 1.80257 0.5 2.3077 0.5H15.6923C16.1974 0.5 16.625 0.675 16.975 1.025C17.325 1.375 17.5 1.80257 17.5 2.3077V15.6923C17.5 16.1974 17.325 16.625 16.975 16.975C16.625 17.325 16.1974 17.5 15.6923 17.5H2.3077Z" fill="url(#paint0_linear_88_157)"/>
<defs>
<linearGradient id="paint0_linear_88_157" x1="8.99998" y1="0.5" x2="8.99998" y2="17.5" gradientUnits="userSpaceOnUse">
<stop stop-color="#FFA674"/>
<stop offset="1" stop-color="#FF8D74"/>
</linearGradient>
</defs>
</svg>
