<svg width="18" height="20" viewBox="0 0 18 20" fill="none" xmlns="http://www.w3.org/2000/svg">
<path d="M2.3077 19.5C1.80257 19.5 1.375 19.325 1.025 18.975C0.675 18.625 0.5 18.1974 0.5 17.6923V4.3077C0.5 3.80257 0.675 3.375 1.025 3.025C1.375 2.675 1.80257 2.5 2.3077 2.5H6.7577C6.83718 1.93847 7.08526 1.46475 7.50193 1.07885C7.91858 0.692951 8.41793 0.5 8.99998 0.5C9.58203 0.5 10.0814 0.692951 10.498 1.07885C10.9147 1.46475 11.1628 1.93847 11.2423 2.5H15.6923C16.1974 2.5 16.625 2.675 16.975 3.025C17.325 3.375 17.5 3.80257 17.5 4.3077V17.6923C17.5 18.1974 17.325 18.625 16.975 18.975C16.625 19.325 16.1974 19.5 15.6923 19.5H2.3077ZM8.99998 3.34613C9.21664 3.34613 9.39581 3.27529 9.53748 3.13363C9.67914 2.99196 9.74998 2.81279 9.74998 2.59613C9.74998 2.37946 9.67914 2.20029 9.53748 2.05863C9.39581 1.91696 9.21664 1.84613 8.99998 1.84613C8.78331 1.84613 8.60414 1.91696 8.46248 2.05863C8.32081 2.20029 8.24998 2.37946 8.24998 2.59613C8.24998 2.81279 8.32081 2.99196 8.46248 3.13363C8.60414 3.27529 8.78331 3.34613 8.99998 3.34613ZM8.99998 12.0385C9.90254 12.0385 10.6698 11.7224 11.3019 11.0904C11.9339 10.4583 12.25 9.69102 12.25 8.78845C12.25 7.8859 11.9339 7.1186 11.3019 6.48655C10.6698 5.8545 9.90254 5.53848 8.99998 5.53848C8.09741 5.53848 7.33011 5.8545 6.69808 6.48655C6.06603 7.1186 5.75 7.8859 5.75 8.78845C5.75 9.69102 6.06603 10.4583 6.69808 11.0904C7.33011 11.7224 8.09741 12.0385 8.99998 12.0385ZM2.21153 18H15.7884C15.8589 17.9307 15.907 17.7759 15.9327 17.5356C15.9583 17.2952 15.9807 17.1308 16 17.0423C15.1 16.159 14.0541 15.4631 12.8625 14.9548C11.6708 14.4465 10.3833 14.1923 8.99998 14.1923C7.61664 14.1923 6.32914 14.4465 5.13748 14.9548C3.94581 15.4631 2.89998 16.159 1.99997 17.0423C2.01921 17.1308 2.04165 17.2952 2.0673 17.5356C2.09293 17.7759 2.14101 17.9307 2.21153 18Z" fill="url(#paint0_linear_88_165)"/>
<defs>
<linearGradient id="paint0_linear_88_165" x1="8.99998" y1="0.5" x2="8.99998" y2="19.5" gradientUnits="userSpaceOnUse">
<stop stop-color="#748AFF"/>
<stop offset="1" stop-color="#74BCFF"/>
</linearGradient>
</defs>
</svg>
